<svg width="32" height="32" fill="none" xmlns="http://www.w3.org/2000/svg">
  <path
      d="M7.273 27.637c-1.6 0-2.97-.57-4.11-1.71-1.139-1.139-1.708-2.509-1.708-4.109V10.182c0-1.6.57-2.97 1.709-4.11 1.14-1.139 2.509-1.708 4.109-1.708h17.454c1.6 0 2.97.57 4.11 1.709 1.139 1.14 1.709 2.509 1.709 4.109v11.636c0 1.6-.57 2.97-1.71 4.11-1.139 1.139-2.509 1.709-4.109 1.709H7.273Zm0-17.455h17.454c.534 0 1.043.06 1.528.182a4.93 4.93 0 0 1 1.381.582v-.764c0-.8-.284-1.485-.854-2.055a2.802 2.802 0 0 0-2.055-.854H7.273c-.8 0-1.485.285-2.055.854a2.801 2.801 0 0 0-.854 2.055v.764c.436-.267.897-.461 1.381-.582a6.276 6.276 0 0 1 1.528-.182Zm-2.691 4.727 16.182 3.928c.218.048.436.048.654 0 .218-.049.425-.146.618-.291l5.055-4.219a3.15 3.15 0 0 0-1.018-.89 2.713 2.713 0 0 0-1.346-.346H7.273c-.63 0-1.182.164-1.655.491-.473.327-.818.77-1.036 1.327Z"
      fill="#175043" />
  <path
      d="M20.764 18.836 4.582 14.91c.218-.558.563-1 1.036-1.327.473-.328 1.024-.491 1.655-.491h17.454c.485 0 .934.115 1.346.345.412.23.751.527 1.018.891l-5.055 4.218c-.194.146-.4.243-.618.291a1.493 1.493 0 0 1-.654 0Z"
      fill="#35B394" />
</svg>